<svg width="76" height="81" viewBox="0 0 76 81" fill="none" xmlns="http://www.w3.org/2000/svg">
<path fill-rule="evenodd" clip-rule="evenodd" d="M56.2246 20.4827C56.2246 8.08407 48.1477 0 39.6435 0C31.1251 0 23.2286 8.00333 23.2286 20.4827H23.2239C23.2571 28.8493 30.6407 44.6996 39.729 44.6996C48.8125 44.6996 56.1771 28.8493 56.2246 20.4827Z" fill="white"/>
<path fill-rule="evenodd" clip-rule="evenodd" d="M63.5465 55.4026C60.4464 55.4012 57.4727 56.708 55.2788 59.0358C53.0849 61.3635 51.8505 64.5217 51.8467 67.8163C51.8467 71.1127 53.0788 74.274 55.2721 76.6049C57.4653 78.9357 60.44 80.2452 63.5417 80.2452C66.6435 80.2452 69.6181 78.9357 71.8114 76.6049C74.0046 74.274 75.2368 71.1127 75.2368 67.8163C75.2343 64.5231 74.0015 61.3656 71.8094 59.0379C69.6173 56.7101 66.6453 55.4026 63.5465 55.4026ZM66.0916 70.4454V75.3806H61.0916V70.4454H56.2104V65.2326H61.0916V60.0552H66.0916V65.2326H70.7876V70.4454H66.0916Z" fill="white"/>
<path fill-rule="evenodd" clip-rule="evenodd" d="M44.0738 65.2984C44.0738 59.036 46.6616 53.4195 50.7499 49.6096C52.9388 47.5608 52.8106 47.7425 50.9018 48.7265C45.4033 51.5625 37.9579 52.3901 37.9579 52.3901C37.9579 52.3901 24.1499 50.9418 20.0806 45.1285C0.588788 45.1285 0 75.2243 0 75.2243H46.4147C44.8759 72.1715 44.0717 68.7616 44.0738 65.2984Z" fill="white"/>
</svg>
