<svg width="60" height="60" viewBox="0 0 60 60" fill="none" xmlns="http://www.w3.org/2000/svg">
<path fill-rule="evenodd" clip-rule="evenodd" d="M44.8383 15.3151C44.8383 6.04452 38.3971 0 31.6151 0C24.8218 0 18.5245 5.98415 18.5245 15.3151H18.5208C18.5473 21.5709 24.4356 33.4222 31.6833 33.4222C38.9273 33.4222 44.8004 21.5709 44.8383 15.3151Z" fill="white"/>
<path fill-rule="evenodd" clip-rule="evenodd" d="M50.6771 41.425C48.2048 41.424 45.8333 42.4011 44.0837 44.1416C42.3342 45.882 41.3497 48.2434 41.3467 50.7068C41.3467 53.1715 42.3293 55.5353 44.0784 57.2781C45.8275 59.0209 48.1997 60 50.6733 60C53.1469 60 55.5191 59.0209 57.2682 57.2781C59.0173 55.5353 59.9999 53.1715 59.9999 50.7068C59.9979 48.2444 59.0148 45.8836 57.2666 44.1431C55.5185 42.4027 53.1483 41.425 50.6771 41.425ZM52.7067 52.6726V56.3627H48.7194V52.6726H44.8266V48.775H48.7194V44.9038H52.7067V48.775H56.4518V52.6726H52.7067Z" fill="white"/>
<path fill-rule="evenodd" clip-rule="evenodd" d="M35.1481 48.8241C35.1481 44.1416 37.2118 39.9422 40.4722 37.0934C42.2178 35.5616 42.1156 35.6974 40.5934 36.4332C36.2084 38.5536 30.2708 39.1724 30.2708 39.1724C30.2708 39.1724 19.2591 38.0896 16.0139 33.7429C0.469548 33.7429 0 56.2458 0 56.2458H37.0149C35.7878 53.9632 35.1464 51.4135 35.1481 48.8241Z" fill="white"/>
</svg>
