<svg width="60" height="60" viewBox="0 0 60 60" fill="none" xmlns="http://www.w3.org/2000/svg">
<path d="M42.2358 41.8351L35.9358 27.122C35.317 25.682 34.8108 23.222 34.8108 21.6545C34.8108 20.087 35.7726 18.8045 36.9483 18.8045C38.1239 18.8045 39.0858 17.8407 39.0858 16.667C39.0858 15.4932 37.8033 14.5295 36.2358 14.5295H23.4108C21.8433 14.5295 20.5608 15.4895 20.5608 16.667C20.5608 17.8445 21.5226 18.8045 22.6983 18.8045C23.8739 18.8045 24.8358 20.087 24.8358 21.6545C24.8358 23.222 24.3295 25.682 23.7108 27.1238L17.4108 41.8388C16.792 43.2788 16.2858 45.1013 16.2858 45.8832C16.2858 46.6651 16.927 47.9513 17.7108 48.7332C18.4945 49.5151 20.4183 50.1582 21.9858 50.1582H37.6608C39.2264 50.1582 41.1483 49.5207 41.9358 48.7332C42.7233 47.9457 43.3608 46.667 43.3608 45.8832C43.3608 45.0995 42.8545 43.277 42.2358 41.8388V41.8351ZM31.8539 10.3107C31.8539 10.8493 32.0678 11.3658 32.4486 11.7466C32.8295 12.1274 33.346 12.3413 33.8845 12.3413C34.4231 12.3413 34.9396 12.1274 35.3204 11.7466C35.7012 11.3658 35.9151 10.8493 35.9151 10.3107C35.9149 9.77216 35.7007 9.25576 35.3197 8.87512C34.9387 8.49448 34.4221 8.28078 33.8836 8.28103C33.345 8.28128 32.8286 8.49546 32.448 8.87645C32.0673 9.25744 31.8536 9.77404 31.8539 10.3126V10.3107ZM26.3883 10.6238C26.6369 10.6238 26.8754 10.5251 27.0512 10.3493C27.227 10.1734 27.3258 9.93498 27.3258 9.68634C27.3258 9.4377 27.227 9.19925 27.0512 9.02343C26.8754 8.84762 26.6369 8.74884 26.3883 8.74884C26.1396 8.74884 25.9012 8.84762 25.7254 9.02343C25.5495 9.19925 25.4508 9.4377 25.4508 9.68634C25.4508 9.93498 25.5495 10.1734 25.7254 10.3493C25.9012 10.5251 26.1396 10.6238 26.3883 10.6238ZM29.9826 5.93634C30.3847 5.95631 30.7867 5.89433 31.1641 5.75415C31.5415 5.61397 31.8864 5.39853 32.178 5.12091C32.4695 4.8433 32.7016 4.5093 32.8601 4.13923C33.0186 3.76915 33.1002 3.37071 33.1 2.96812C33.0997 2.56553 33.0176 2.1672 32.8586 1.79732C32.6997 1.42745 32.4672 1.09375 32.1753 0.8165C31.8834 0.539253 31.5381 0.324248 31.1606 0.184548C30.783 0.044847 30.381 -0.0166325 29.9789 0.00384448C29.2243 0.05083 28.516 0.383838 27.9984 0.934983C27.4809 1.48613 27.193 2.21392 27.1935 2.96998C27.1939 3.72605 27.4827 4.45347 28.001 5.00396C28.5193 5.55445 29.228 5.88656 29.9826 5.93259V5.93634Z" fill="white"/>
</svg>
