<svg width="136" height="119" viewBox="0 0 136 119" fill="none" xmlns="http://www.w3.org/2000/svg">
<path d="M126.012 62.475C123.675 61.5453 123.675 59.8719 123.887 58.5703L129.413 41.65L110.925 44.9969C110.287 44.9969 108.587 44.9969 107.525 41.8359L105.825 36.0719L93.075 49.0875C93.075 49.0875 84.7875 57.0828 87.3375 44.9969L92.8625 19.1516L82.6625 23.6141C82.025 23.8 80.1125 23.9859 77.35 19.5234L68 3.71875L58.65 19.3375C55.8875 23.8 53.975 23.6141 53.3375 23.4281L43.1375 18.9656L48.6625 44.8109C51.2125 56.8969 42.925 48.9016 42.925 48.9016L30.175 35.8859L28.475 41.65C27.625 44.8109 25.7125 44.9969 25.075 44.8109L6.5875 41.4641L12.1125 58.3844C12.325 59.6859 12.325 61.3594 9.9875 62.2891L4.25 64.7062C4.25 64.7062 25.5 79.5812 32.3 84.6016C33.575 85.5312 36.975 88.5062 35.7 91.4812L33.15 98.175L62.05 94.2703C63.5375 94.0844 71.825 94.0844 73.3125 94.2703L102.212 98.175L99.6625 91.4812C98.6 88.3203 101.787 85.5312 103.062 84.6016C110.5 79.5812 131.75 64.7062 131.75 64.7062L126.012 62.475Z" fill="#FF8E66"/>
<path d="M120.7 66.0079C116.875 66.1938 113.263 66.3797 109.438 66.5657C103.275 66.7516 97.1125 66.9375 90.7375 66.9375C93.5 65.2641 96.05 63.4047 98.8125 61.7313L114.325 51.8766L121.975 46.8563C124.525 45.1829 127.075 43.5094 129.413 41.4641C127.075 43.3235 124.313 44.811 121.763 46.4844L113.9 51.1329L98.6 59.8719C99.6625 56.3391 100.725 52.6204 101.788 49.0875L103.913 42.5797C104.55 40.3485 105.4 38.1172 106.25 36.0719C105.188 38.1172 104.338 40.3485 103.275 42.3938L100.725 48.9016C99.025 53.1782 97.5375 57.2688 96.05 61.5454C91.375 64.3344 86.7 66.9375 82.025 69.7266C79.475 71.4001 76.7125 72.8876 74.1625 74.561C72.8875 75.3047 71.6125 76.2344 70.3375 77.1641L69.4875 51.3188C72.4625 45.5547 75.8625 39.9766 79.9 34.7704C83.9375 29.3782 88.4 23.986 93.2875 18.9657C88.1875 23.8 83.5125 29.0063 79.05 34.2125C75.65 38.4891 72.25 42.9516 69.4875 47.6L68 7.99536L66.725 47.6C63.9625 42.9516 60.5625 38.4891 57.1625 34.2125C52.7 28.8204 48.025 23.8 42.925 18.9657C47.8125 23.986 52.0625 29.3782 56.3125 34.7704C60.1375 40.1626 63.75 45.5547 66.725 51.3188L65.875 76.9782C64.6 76.0485 63.325 75.3047 62.05 74.3751C59.5 72.7016 56.7375 71.0282 54.1875 69.5407C49.5125 66.7516 44.8375 63.9626 40.1625 61.3594C38.675 57.0829 37.1875 52.9922 35.4875 48.7157L32.9375 42.2079C32.0875 40.1626 31.2375 37.9313 29.9625 35.886C31.025 37.9313 31.6625 40.1625 32.3 42.3938L34.425 48.9016C35.4875 52.4344 36.55 56.1532 37.6125 59.686L22.3125 50.9469L14.45 46.4844C11.9 44.811 9.13752 43.3235 6.80002 41.4641C9.13752 43.5094 11.6875 45.1829 14.2375 46.8563L21.8875 51.8766L37.4 61.7313C40.1625 63.4047 42.7125 65.2641 45.475 66.9375C39.3125 66.9375 33.15 66.7516 26.775 66.5657C22.95 66.3797 19.3375 66.1938 15.5125 66.0079C11.6875 65.636 8.07502 65.4501 4.46252 64.7063C8.07502 65.636 11.9 66.0079 15.5125 66.5657C19.3375 66.9375 22.95 67.3094 26.775 67.6813C34 68.2391 41.0125 68.611 48.2375 68.9829C49.725 69.9125 51.2125 70.8422 52.7 71.9579C55.0375 73.6313 57.375 75.1188 59.7125 76.7922C55.675 80.3251 51.85 83.8579 47.8125 87.3907C45.475 89.436 43.35 91.2954 41.0125 93.1547C38.675 95.0141 36.3375 96.8735 33.7875 98.361C36.55 96.8735 39.1 95.2001 41.4375 93.3407C43.775 91.4813 46.325 89.8079 48.6625 87.9485C52.9125 84.6016 57.1625 81.0688 61.4125 77.9079C62.2625 78.4657 63.1125 79.0235 63.75 79.7672C64.6 80.511 65.45 81.2547 66.0875 81.9985L64.8125 115.281H71.1875L70.125 81.9985C70.7625 81.2547 71.6125 80.511 72.4625 79.7672C73.3125 79.2094 73.95 78.4657 74.8 77.9079L87.55 87.9485C89.8875 89.8079 92.225 91.6672 94.775 93.3407C97.325 95.0141 99.6625 96.8735 102.425 98.361C99.875 96.8735 97.5375 95.0141 95.2 93.1547C92.8625 91.2954 90.525 89.2501 88.4 87.3907C84.3625 83.8579 80.5375 80.3251 76.5 76.7922C78.8375 75.1188 81.175 73.4454 83.5125 71.9579C85 71.0282 86.4875 70.0985 87.975 68.9829C95.2 68.611 102.213 68.2391 109.438 67.6813C113.263 67.3094 116.875 67.1235 120.7 66.5657C124.525 66.1938 128.138 65.8219 131.75 64.7063C128.138 65.4501 124.313 65.8219 120.7 66.0079Z" fill="#C65C3C"/>
</svg>
