<svg width="119" height="119" viewBox="0 0 119 119" fill="none" xmlns="http://www.w3.org/2000/svg">
<path d="M99.1666 4.95825V19.8333H114.042V29.7499H99.1666V44.6249H89.2499V29.7499H74.3749V19.8333H89.2499V4.95825H99.1666ZM59.4999 64.4583C64.9541 64.4583 69.4166 59.9958 69.4166 54.5416C69.4166 49.0874 64.9541 44.6249 59.4999 44.6249C54.0457 44.6249 49.5832 49.0874 49.5832 54.5416C49.5832 59.9958 54.0457 64.4583 59.4999 64.4583ZM69.4166 16.1145V34.7083H84.2916V49.5833H98.7699C99.0178 51.517 99.1666 53.5003 99.1666 55.5333C99.1666 71.9949 85.9278 91.4812 59.4999 114.042C33.072 91.4812 19.8333 71.9949 19.8333 55.5333C19.8333 30.8408 38.6749 14.8749 59.4999 14.8749C62.8716 14.8749 66.1937 15.2716 69.4166 16.1145Z" fill="#3D8D5D"/>
</svg>
