<svg width="60" height="71" viewBox="0 0 60 71" fill="none" xmlns="http://www.w3.org/2000/svg">
<path d="M57.6496 46.0809C52.141 34.8665 37.7111 36.0754 32.8349 36.1568C32.8973 35.8771 32.9412 35.5877 32.9412 35.2836C32.9412 35.01 32.907 34.7485 32.8554 34.4943C37.7267 34.6962 52.293 35.4806 57.6526 24.4827C63.3892 12.7076 53.4828 9.09311 49.0364 13.0506C52.3232 7.07181 49.1046 -4.2691 39.6114 2.60112C30.5664 9.14419 31.3284 26.0443 31.4278 32.3101C31.0403 32.0656 30.6127 31.9365 30.1786 31.933C29.7729 31.935 29.3725 32.0475 29.0053 32.2626C29.1846 25.9701 29.5987 8.9496 20.7428 2.59504C11.0401 -4.36396 8.06117 7.65558 11.3217 13.0518C12.9072 14.7009 14.4312 16.423 15.9485 18.1561C17.4696 19.8807 18.9479 21.6587 20.4291 23.4368C21.8946 25.2294 23.3583 27.0245 24.782 28.8719L26.9141 31.6424C27.605 32.591 28.3134 33.5165 28.9868 34.4846C28.1877 33.6673 27.4257 32.805 26.6461 31.9695L24.36 29.3827C22.8389 27.6569 21.3606 25.8789 19.8814 24.0996C18.4178 22.3057 16.9502 20.5106 15.5285 18.6633C14.1009 16.8244 12.6811 14.9746 11.3227 13.0506C6.39484 9.06149 -2.94928 12.9667 2.7104 24.4863C8.22001 35.6983 22.6469 34.4943 27.5251 34.4104C27.4627 34.6901 27.4189 34.9796 27.4189 35.2836C27.4189 35.5573 27.453 35.8187 27.5046 36.0729C22.6343 35.871 8.06702 35.0842 2.70748 46.0845C-3.02919 57.8596 6.8772 61.4717 11.3237 57.5142C8.03681 63.493 11.2555 74.8351 20.7487 67.9661C29.7927 61.4218 29.0316 44.5217 28.9322 38.2548C29.3093 38.4895 29.7293 38.6342 30.1805 38.6342C30.6034 38.6342 30.9981 38.5089 31.3557 38.3046C31.1754 44.5935 30.7593 61.6152 39.6182 67.971C49.3209 74.9312 52.2998 62.9117 49.0393 57.5142C47.4538 55.8663 45.9298 54.1442 44.4125 52.4099C42.8914 50.6854 41.4131 48.9061 39.9319 47.1292C38.4664 45.3354 37.0027 43.5415 35.579 41.6941L33.4469 38.9224C32.758 37.9738 32.0476 37.0483 31.3742 36.0814C32.1713 36.8987 32.9353 37.7586 33.7149 38.5953L36.001 41.1833C37.5221 42.9091 39.0004 44.6871 40.4796 46.464C41.9432 48.2603 43.4108 50.0542 44.8306 51.9016C46.2601 53.7429 47.678 55.5902 49.0383 57.5142C53.9652 61.5058 63.3122 57.6006 57.6496 46.0809ZM26.9122 38.9237L24.782 41.6953C23.3583 43.5415 21.8946 45.3366 20.4291 47.1305C18.9479 48.9073 17.4696 50.6866 15.9485 52.4111C14.4312 54.1442 12.9072 55.8651 11.3217 57.5155C12.6811 55.5915 14.1009 53.7429 15.5275 51.9028C16.9492 50.0554 18.4148 48.2615 19.8804 46.4652C21.3577 44.6859 22.8379 42.9103 24.3591 41.1845L26.6432 38.5965C27.4257 37.7598 28.1868 36.8987 28.9858 36.0827C28.3125 37.0495 27.605 37.975 26.9122 38.9237ZM33.4469 31.6424L35.579 28.8707C37.0027 27.0245 38.4664 25.2294 39.9319 23.4356C41.4131 21.6587 42.8914 19.8807 44.4125 18.1561C45.9298 16.423 47.4538 14.7009 49.0393 13.0518C47.6789 14.9758 46.2601 16.8256 44.8315 18.6645C43.4118 20.5119 41.9442 22.3069 40.4806 24.1008C39.0013 25.8789 37.5231 27.6569 36.0019 29.3839L33.7158 31.9683C32.9353 32.8063 32.1723 33.6685 31.3752 34.4858C32.0476 33.5153 32.758 32.591 33.4469 31.6424Z" fill="#356B51"/>
</svg>
