<svg width="58" height="60" viewBox="0 0 58 60" fill="none" xmlns="http://www.w3.org/2000/svg">
<path d="M28.7552 5C30.0263 5 31.2453 5.52678 32.144 6.46447C33.0428 7.40215 33.5477 8.67392 33.5477 10C33.5477 11.3261 33.0428 12.5979 32.144 13.5355C31.2453 14.4732 30.0263 15 28.7552 15C27.4842 15 26.2652 14.4732 25.3664 13.5355C24.4676 12.5979 23.9627 11.3261 23.9627 10C23.9627 8.67392 24.4676 7.40215 25.3664 6.46447C26.2652 5.52678 27.4842 5 28.7552 5ZM25.1608 17.5H32.3496C33.6207 17.5 34.8397 18.0268 35.7384 18.9645C36.6372 19.9021 37.1421 21.1739 37.1421 22.5V36.25H33.5477V55H23.9627V36.25H20.3683V22.5C20.3683 21.1739 20.8732 19.9021 21.772 18.9645C22.6708 18.0268 23.8898 17.5 25.1608 17.5Z" fill="white"/>
</svg>
