<svg width="89" height="60" viewBox="0 0 89 60" fill="none" xmlns="http://www.w3.org/2000/svg">
<path d="M44.3469 5C46.2821 5 48.138 5.52678 49.5064 6.46447C50.8747 7.40215 51.6435 8.67392 51.6435 10C51.6435 11.3261 50.8747 12.5979 49.5064 13.5355C48.138 14.4732 46.2821 15 44.3469 15C42.4117 15 40.5558 14.4732 39.1874 13.5355C37.8191 12.5979 37.0503 11.3261 37.0503 10C37.0503 8.67392 37.8191 7.40215 39.1874 6.46447C40.5558 5.52678 42.4117 5 44.3469 5ZM38.8745 17.5H49.8193C51.7545 17.5 53.6104 18.0268 54.9788 18.9645C56.3472 19.9021 57.1159 21.1739 57.1159 22.5V36.25H51.6435V55H37.0503V36.25H31.5779V22.5C31.5779 21.1739 32.3466 19.9021 33.715 18.9645C35.0834 18.0268 36.9393 17.5 38.8745 17.5Z" fill="white"/>
</svg>
