<svg width="335" height="98" viewBox="0 0 335 98" fill="none" xmlns="http://www.w3.org/2000/svg">
<path d="M111.601 86.3009C118.404 90.3381 127.12 89.1147 132.357 83.1859C140.392 74.0901 148.596 63.9462 132.831 77.0716C108.081 97.6787 122.559 43.9048 107.864 62.255C107.222 63.0566 106.565 63.9648 105.91 64.932C101.005 72.1826 104.072 81.8334 111.601 86.3009V86.3009Z" fill="#3D8D5D"/>
<ellipse cx="90" cy="57.5" rx="35" ry="29.5" fill="#63BA86"/>
<path d="M108.793 63.5464C105.024 57.2666 95.1519 57.9436 91.8159 57.9892C91.8586 57.8326 91.8886 57.6705 91.8886 57.5002C91.8886 57.347 91.8653 57.2006 91.8299 57.0582C95.1626 57.1713 105.128 57.6105 108.795 51.452C112.719 44.8583 105.942 42.8343 102.9 45.0503C105.149 41.7024 102.947 35.3518 96.4519 39.199C90.2639 42.8629 90.7853 52.3265 90.8533 55.8351C90.5882 55.6982 90.2956 55.6259 89.9986 55.624C89.7211 55.6251 89.4471 55.6881 89.1959 55.8085C89.3186 52.2849 89.6019 42.7539 83.5433 39.1955C76.9052 35.2987 74.8672 42.0293 77.0979 45.051C78.1826 45.9745 79.2252 46.9388 80.2632 47.9093C81.3039 48.875 82.3152 49.8707 83.3286 50.8663C84.3313 51.8702 85.3326 52.8754 86.3066 53.9098L87.7653 55.4612C88.2379 55.9924 88.7226 56.5107 89.1833 57.0528C88.6366 56.5951 88.1153 56.1123 87.5819 55.6444L86.0179 54.1959C84.9773 53.2295 83.9659 52.2338 82.9539 51.2375C81.9526 50.233 80.9486 49.2278 79.9759 48.1933C78.9992 47.1636 78.0279 46.1277 77.0986 45.0503C73.7272 42.8166 67.3346 45.0034 71.2066 51.4541C74.9759 57.7325 84.8459 57.0582 88.1833 57.0112C88.1406 57.1679 88.1106 57.33 88.1106 57.5002C88.1106 57.6535 88.1339 57.7999 88.1693 57.9422C84.8373 57.8292 74.8712 57.3885 71.2046 63.5484C67.2799 70.1421 74.0572 72.1648 77.0992 69.9487C74.8506 73.2967 77.0526 79.6479 83.5473 75.8015C89.7346 72.1369 89.2139 62.6733 89.1459 59.164C89.4039 59.2954 89.6913 59.3765 89.9999 59.3765C90.2893 59.3765 90.5593 59.3063 90.8039 59.1919C90.6806 62.7135 90.3959 72.2452 96.4566 75.8042C103.095 79.7017 105.133 72.9711 102.902 69.9487C101.817 69.0259 100.775 68.0616 99.7366 67.0905C98.6959 66.1248 97.6846 65.1284 96.6713 64.1334C95.6686 63.1289 94.6673 62.1244 93.6933 61.0899L92.2346 59.5379C91.7633 59.0067 91.2773 58.4884 90.8166 57.947C91.3619 58.4046 91.8846 58.8861 92.4179 59.3547L93.9819 60.8039C95.0226 61.7703 96.0339 62.7659 97.0459 63.7609C98.0473 64.7668 99.0513 65.7713 100.023 66.8058C101.001 67.8369 101.971 68.8713 102.901 69.9487C106.272 72.1839 112.667 69.9971 108.793 63.5464V63.5464ZM87.7639 59.5385L86.3066 61.0906C85.3326 62.1244 84.3313 63.1296 83.3286 64.1341C82.3152 65.1291 81.3039 66.1254 80.2632 67.0911C79.2252 68.0616 78.1826 69.0253 77.0979 69.9494C78.0279 68.872 78.9992 67.8369 79.9752 66.8065C80.9479 65.772 81.9506 64.7675 82.9532 63.7616C83.9639 62.7652 84.9766 61.7709 86.0173 60.8046L87.5799 59.3553C88.1153 58.8868 88.6359 58.4046 89.1826 57.9477C88.7219 58.4891 88.2379 59.0073 87.7639 59.5385ZM92.2346 55.4612L93.6933 53.9092C94.6673 52.8754 95.6686 51.8702 96.6713 50.8656C97.6846 49.8707 98.6959 48.875 99.7366 47.9093C100.775 46.9388 101.817 45.9745 102.902 45.051C101.971 46.1284 101.001 47.1643 100.023 48.194C99.0519 49.2285 98.0479 50.2337 97.0466 51.2382C96.0346 52.2338 95.0233 53.2295 93.9826 54.1966L92.4186 55.6437C91.8846 56.113 91.3626 56.5958 90.8173 57.0535C91.2773 56.51 91.7633 55.9924 92.2346 55.4612" fill="#356B51"/>
<path d="M48.9727 78H39.832L15.75 40.9453C15.1406 40.0078 14.6367 39.0352 14.2383 38.0273H14.0273C14.2148 39.1055 14.3086 41.4141 14.3086 44.9531V78H6.22266V27.5859H15.9609L39.2344 63.7617C40.2188 65.2617 40.8516 66.293 41.1328 66.8555H41.2734C41.0391 65.5195 40.9219 63.2578 40.9219 60.0703V27.5859H48.9727V78Z" fill="black"/>
<path d="M174.738 27.5859L156.633 78H147.281L129.492 27.5859H138.633L151.078 65.8359C151.477 67.0547 151.781 68.4727 151.992 70.0898H152.133C152.297 68.7539 152.637 67.3125 153.152 65.7656L165.879 27.5859H174.738ZM218.895 78H209.719L205.184 65.168H185.355L180.996 78H171.855L190.734 27.5859H200.156L218.895 78ZM202.969 58.3477L195.973 38.2383C195.762 37.582 195.539 36.5273 195.305 35.0742H195.164C194.953 36.4102 194.719 37.4648 194.461 38.2383L187.535 58.3477H202.969ZM264.809 78H255.035L246.984 64.5C246.258 63.2578 245.543 62.2031 244.84 61.3359C244.16 60.4453 243.457 59.7188 242.73 59.1562C242.027 58.5938 241.254 58.1836 240.41 57.9258C239.566 57.668 238.617 57.5391 237.562 57.5391H234.188V78H225.855V27.5859H242.449C244.816 27.5859 246.996 27.8672 248.988 28.4297C250.98 28.9922 252.715 29.8477 254.191 30.9961C255.668 32.1211 256.816 33.5391 257.637 35.25C258.48 36.9375 258.902 38.918 258.902 41.1914C258.902 42.9727 258.633 44.6133 258.094 46.1133C257.578 47.5898 256.828 48.9141 255.844 50.0859C254.883 51.2344 253.711 52.2188 252.328 53.0391C250.969 53.8594 249.434 54.4922 247.723 54.9375V55.0781C248.637 55.5938 249.434 56.168 250.113 56.8008C250.793 57.4102 251.438 58.043 252.047 58.6992C252.656 59.3555 253.254 60.1055 253.84 60.9492C254.449 61.7695 255.117 62.7305 255.844 63.832L264.809 78ZM234.188 34.3711V50.7539H241.148C242.438 50.7539 243.621 50.5547 244.699 50.1562C245.801 49.7578 246.75 49.1836 247.547 48.4336C248.344 47.6836 248.965 46.7695 249.41 45.6914C249.855 44.6133 250.078 43.4062 250.078 42.0703C250.078 39.6562 249.316 37.7695 247.793 36.4102C246.27 35.0508 244.078 34.3711 241.219 34.3711H234.188ZM312.129 78H302.953L298.418 65.168H278.59L274.23 78H265.09L283.969 27.5859H293.391L312.129 78ZM296.203 58.3477L289.207 38.2383C288.996 37.582 288.773 36.5273 288.539 35.0742H288.398C288.188 36.4102 287.953 37.4648 287.695 38.2383L280.77 58.3477H296.203Z" fill="black"/>
</svg>
