<svg width="60" height="60" viewBox="0 0 60 60" fill="none" xmlns="http://www.w3.org/2000/svg">
<path d="M42.2356 41.8351L35.9356 27.122C35.3169 25.682 34.8106 23.222 34.8106 21.6545C34.8106 20.087 35.7725 18.8045 36.9481 18.8045C38.1238 18.8045 39.0856 17.8407 39.0856 16.667C39.0856 15.4932 37.8031 14.5295 36.2356 14.5295H23.4106C21.8431 14.5295 20.5606 15.4895 20.5606 16.667C20.5606 17.8445 21.5225 18.8045 22.6981 18.8045C23.8738 18.8045 24.8356 20.087 24.8356 21.6545C24.8356 23.222 24.3294 25.682 23.7106 27.1238L17.4106 41.8388C16.7919 43.2788 16.2856 45.1013 16.2856 45.8832C16.2856 46.6651 16.9269 47.9513 17.7106 48.7332C18.4944 49.5151 20.4181 50.1582 21.9856 50.1582H37.6606C39.2263 50.1582 41.1481 49.5207 41.9356 48.7332C42.7231 47.9457 43.3606 46.667 43.3606 45.8832C43.3606 45.0995 42.8544 43.277 42.2356 41.8388V41.8351ZM31.8538 10.3107C31.8538 10.8493 32.0677 11.3658 32.4485 11.7466C32.8293 12.1274 33.3458 12.3413 33.8844 12.3413C34.4229 12.3413 34.9394 12.1274 35.3203 11.7466C35.7011 11.3658 35.915 10.8493 35.915 10.3107C35.9148 9.77216 35.7006 9.25576 35.3196 8.87512C34.9386 8.49448 34.422 8.28078 33.8835 8.28103C33.3449 8.28128 32.8285 8.49546 32.4479 8.87645C32.0672 9.25744 31.8535 9.77404 31.8538 10.3126V10.3107ZM26.3881 10.6238C26.6368 10.6238 26.8752 10.5251 27.0511 10.3493C27.2269 10.1734 27.3256 9.93498 27.3256 9.68634C27.3256 9.4377 27.2269 9.19925 27.0511 9.02343C26.8752 8.84762 26.6368 8.74884 26.3881 8.74884C26.1395 8.74884 25.901 8.84762 25.7252 9.02343C25.5494 9.19925 25.4506 9.4377 25.4506 9.68634C25.4506 9.93498 25.5494 10.1734 25.7252 10.3493C25.901 10.5251 26.1395 10.6238 26.3881 10.6238ZM29.9825 5.93634C30.3846 5.95631 30.7866 5.89433 31.164 5.75415C31.5414 5.61397 31.8863 5.39853 32.1779 5.12091C32.4694 4.8433 32.7015 4.5093 32.86 4.13923C33.0185 3.76915 33.1001 3.37071 33.0998 2.96812C33.0996 2.56553 33.0175 2.1672 32.8585 1.79732C32.6996 1.42745 32.4671 1.09375 32.1751 0.8165C31.8832 0.539253 31.538 0.324248 31.1604 0.184548C30.7829 0.044847 30.3808 -0.0166325 29.9788 0.00384448C29.2242 0.05083 28.5159 0.383838 27.9983 0.934983C27.4807 1.48613 27.1929 2.21392 27.1933 2.96998C27.1938 3.72605 27.4826 4.45347 28.0009 5.00396C28.5192 5.55445 29.2279 5.88656 29.9825 5.93259V5.93634Z" fill="white"/>
</svg>
