<svg width="30" height="30" viewBox="0 0 30 30" fill="none" xmlns="http://www.w3.org/2000/svg">
<path d="M30 3.55359C29.1646 5.08333 28.1397 6.38735 26.9252 7.46567C26.9372 7.75487 26.9432 8.08174 26.9432 8.44628C26.9432 10.4717 26.7033 12.4996 26.2236 14.53C25.7438 16.5604 25.011 18.5038 24.0251 20.3603C23.0392 22.2168 21.8648 23.8614 20.5019 25.2943C19.139 26.7272 17.5008 27.8697 15.5872 28.7218C13.6736 29.5739 11.6227 30 9.43454 30C6.01957 30 2.87473 28.8651 0 26.5952C0.51023 26.6651 0.999584 26.7001 1.46806 26.7001C4.32099 26.7001 6.86911 25.6183 9.11243 23.4548C7.78223 23.4247 6.59094 22.9207 5.53856 21.9425C4.48617 20.9644 3.76195 19.7145 3.36588 18.1929C3.75736 18.2847 4.14375 18.3306 4.52503 18.3306C5.07386 18.3306 5.61391 18.2424 6.14516 18.0662C4.72559 17.7162 3.54794 16.8458 2.6122 15.455C1.6765 14.0642 1.20865 12.459 1.20865 10.6393V10.5455C2.07999 11.1395 3.0094 11.4554 3.9969 11.4933C3.15596 10.8031 2.48922 9.90314 1.99668 8.79332C1.50411 7.6835 1.25783 6.48248 1.25783 5.19027C1.25783 3.82741 1.53524 2.55833 2.09007 1.38303C3.63382 3.71517 5.5044 5.57908 7.7018 6.97478C9.89924 8.3705 12.2567 9.14564 14.7741 9.3002C14.6667 8.74934 14.6129 8.17449 14.6127 7.57565C14.6127 5.48474 15.2138 3.6994 16.4159 2.21964C17.6181 0.739879 19.0684 0 20.7669 0C22.5451 0 24.043 0.797109 25.2604 2.39133C26.6514 2.05215 27.9538 1.43866 29.1676 0.55086C28.7 2.36266 27.7988 3.76034 26.4642 4.7439C27.6909 4.56446 28.8695 4.16769 30 3.55359Z" fill="#657069"/>
</svg>
